{"title":"Cela s'appelle l'aurore AKA That Is the Dawn (1956)","uid":12133799,"size":1605488179,"categoryP":"other","categoryS":"other","magnet":"?xt=urn:btih:9769a651b706a3165b7c6d6cecd0eb2daec1e313&amp;dn=Cela+s%27appelle+l%27aurore+AKA+That+Is+the+Dawn+%281956%29&amp;tr=udp%3A%2F%2Ftracker.openbittorrent.com%3A80&amp;tr=udp%3A%2F%2Fopen.demonii.com%3A1337&amp;tr=udp%3A%2F%2Ftracker.coppersurfer.tk%3A6969&amp;tr=udp%3A%2F%2Fexodus.desync.com%3A6969","seeders":0,"leechers":0,"uploader":"app1985","files":7,"time":1437130983,"description":" &lt;a href=&quot;http://www.imdb.com/title/tt0047925/&quot; rel=&quot;nofollow&quot; target=&quot;_NEW&quot;&gt;http://www.imdb.com/title/tt0047925/&lt;/a&gt;\n\nGeneral\nUnique ID                      : 238632714858377113333877727262377633056 (0xB386FD3756205E8FBBA1734D9E65E520)\nComplete name                  : Cela s'appelle l'aurore.mkv\nFormat                         : Matroska\nFormat version                 : Version 2\nFile size                      : 1.49 GiB\nDuration                       : 1h 37mn\nOverall bit rate               : 2 196 Kbps\nEncoded date                   : UTC 2014-01-22 14:56:09\nWriting application            : mkvmerge v6.5.0 ('Isn't she lovely') built on Oct 19 2013 21:21:00\nWriting library                : libebml v1.3.0 + libmatroska v1.4.1\n\nVideo\nID                             : 1\nFormat                         : AVC\nFormat/Info                    : Advanced Video Codec\nFormat profile                 : &lt;a class=&quot;__cf_email__&quot; href=&quot;/cdn-cgi/l/email-protection&quot; data-cfemail=&quot;622a0b050a222e514c53&quot;&gt;[email&amp;#160;protected]&lt;/a&gt;&lt;script data-cfhash='f9e31' type=&quot;text/javascript&quot;&gt;\n/* &lt;![CDATA[ */!function(){try{var t=&quot;currentScript&quot;in document?document.currentScript:function(){for(var t=document.getElementsByTagName(&quot;script&quot;),e=t.length;e--;)if(t[e].getAttribute(&quot;data-cfhash&quot;))return t[e]}();if(t&amp;&amp;t.previousSibling){var e,r,n,i,c=t.previousSibling,a=c.getAttribute(&quot;data-cfemail&quot;);if(a){for(e=&quot;&quot;,r=parseInt(a.substr(0,2),16),n=2;a.length-n;n+=2)i=parseInt(a.substr(n,2),16)^r,e+=String.fromCharCode(i);e=document.createTextNode(e),c.parentNode.replaceChild(e,c)}t.parentNode.removeChild(t);}}catch(u){}}()/* ]]&gt; */&lt;/script&gt;\nFormat settings, CABAC         : Yes\nFormat settings, ReFrames      : 5 frames\nCodec ID                       : V_MPEG4/ISO/AVC\nDuration                       : 1h 37mn\nBit rate                       : 2 000 Kbps\nWidth                          : 718 pixels\nHeight                         : 572 pixels\nDisplay aspect ratio           : 1.374\nOriginal display aspect ratio  : 1.376\nFrame rate mode                : Constant\nFrame rate                     : 25.000 fps\nColor space                    : YUV\nChroma subsampling             : 4:2:0\nBit depth                      : 8 bits\nScan type                      : Progressive\nBits/(Pixel*Frame)             : 0.195\nStream size                    : 1.33 GiB (89%)\nWriting library                : x264 core 140 r2377 1ca7bb9\nEncoding settings              : cabac=1 / ref=5 / deblock=1:0:0 / analyse=0x3:0x133 / me=umh / subme=10 / psy=1 / psy_rd=1.00:0.15 / mixed_ref=1 / me_range=28 / chroma_me=0 / trellis=2 / 8x8dct=1 / cqm=0 / deadzone=21,11 / fast_pskip=1 / chroma_qp_offset=-3 / threads=1 / lookahead_threads=1 / sliced_threads=0 / nr=0 / decimate=1 / interlaced=0 / bluray_compat=0 / constrained_intra=0 / bframes=5 / b_pyramid=2 / b_adapt=2 / b_bias=0 / direct=3 / weightb=1 / open_gop=0 / weightp=2 / keyint=250 / keyint_min=25 / scenecut=40 / intra_refresh=0 / rc_lookahead=60 / rc=2pass / mbtree=1 / bitrate=2000 / ratetol=3.0 / qcomp=0.60 / qpmin=0 / qpmax=69 / qpstep=4 / cplxblur=20.0 / qblur=0.5 / vbv_maxrate=17500 / vbv_bufsize=17500 / nal_hrd=none / filler=0 / ip_ratio=1.40 / aq=1:1.00\nLanguage                       : English\nDefault                        : Yes\nForced                         : No\n\nAudio\nID                             : 2\nFormat                         : AC-3\nFormat/Info                    : Audio Coding 3\nMode extension                 : CM (complete main)\nFormat settings, Endianness    : Big\nCodec ID                       : A_AC3\nDuration                       : 1h 37mn\nBit rate mode                  : Constant\nBit rate                       : 192 Kbps\nChannel(s)                     : 2 channels\nChannel positions              : Front: L R\nSampling rate                  : 48.0 KHz\nBit depth                      : 16 bits\nCompression mode               : Lossy\nStream size                    : 134 MiB (9%)\nDefault                        : Yes\nForced                         : No\n\nText\nID                             : 3\nFormat                         : VobSub\nMuxing mode                    : zlib\nCodec ID                       : S_VOBSUB\nCodec ID/Info                  : The same subtitle format used on DVDs\nLanguage                       : Spanish\nDefault                        : No\nForced                         : No","torrent":{"xt":"urn:btih:9769a651b706a3165b7c6d6cecd0eb2daec1e313","amp;dn":"Cela+s%27appelle+l%27aurore+AKA+That+Is+the+Dawn+%281956%29","amp;tr":["udp%3A%2F%2Ftracker.openbittorrent.com%3A80","udp%3A%2F%2Fopen.demonii.com%3A1337","udp%3A%2F%2Ftracker.coppersurfer.tk%3A6969","udp%3A%2F%2Fexodus.desync.com%3A6969"],"infoHash":"9769a651b706a3165b7c6d6cecd0eb2daec1e313","infoHashBuffer":{"type":"Buffer","data":[151,105,166,81,183,6,163,22,91,124,109,108,236,208,235,45,174,193,227,19]},"announce":[],"urlList":[]}}